<?xml version="1.0" encoding="UTF-8"?>
<svg width="17px" height="17px" viewBox="0 0 17 17" version="1.1" xmlns="http://www.w3.org/2000/svg" xmlns:xlink="http://www.w3.org/1999/xlink">
    <!-- Generator: Sketch 54.1 (76490) - https://sketchapp.com -->
    <title>Form / Checkbox / Selected Copy 2</title>
    <desc>Created with Sketch.</desc>
    <g id="Working" stroke="none" stroke-width="1" fill="none" fill-rule="evenodd">
        <g id="Form-/-Checkbox-/-Disabled" transform="translate(1.000000, 1.000000)">
            <g id="Checkbox-/-Disabled">
                <rect id="Rectangle" stroke="#BBBCBC" fill="#F2F3F2" x="0.46875" y="0.46875" width="14.0625" height="14.0625" rx="1.5"></rect>
                <path d="M12.140625,4.6875 L11.025,3.796875 C10.9875,3.76875 10.95,3.75 10.903125,3.75 C10.846875,3.75 10.809375,3.76875 10.771875,3.796875 L6.721875,9.046875 C6.721875,9.046875 5.128125,7.5 5.08125,7.453125 C5.034375,7.40625 4.978125,7.33125 4.89375,7.33125 C4.8,7.33125 4.7625,7.396875 4.715625,7.44375 C4.678125,7.48125 4.115625,8.08125 3.834375,8.38125 C3.815625,8.4 3.80625,8.409375 3.7875,8.428125 C3.76875,8.45625 3.75,8.49375 3.75,8.540625 C3.75,8.5875 3.76875,8.625 3.7875,8.653125 L3.84375,8.709375 C3.84375,8.709375 6.675,11.446875 6.721875,11.49375 C6.76875,11.540625 6.825,11.596875 6.909375,11.596875 C6.984375,11.596875 7.059375,11.5125 7.096875,11.465625 L12.15,4.93125 C12.16875,4.89375 12.1875,4.85625 12.1875,4.81875 C12.1875,4.7625 12.16875,4.715625 12.140625,4.6875 Z" id="Path" fill="#BBBCBC"></path>
            </g>
        </g>
    </g>
</svg>