<?xml version="1.0" encoding="UTF-8"?>
<svg width="17px" height="17px" viewBox="0 0 17 17" version="1.1" xmlns="http://www.w3.org/2000/svg" xmlns:xlink="http://www.w3.org/1999/xlink">
    <!-- Generator: Sketch 54.1 (76490) - https://sketchapp.com -->
    <title>Form / Checkbox / Selected</title>
    <desc>Created with Sketch.</desc>
    <g id="Working" stroke="none" stroke-width="1" fill="none" fill-rule="evenodd">
        <g id="Form-/-Checkbox-/-Selected" transform="translate(1.000000, 1.000000)">
            <g id="Checkbox-/-Selected">
                <rect id="Rectangle" stroke="#FFFFFF" fill="#8B1D41" x="0" y="0" width="15" height="15" rx="1.5"></rect>
                <path d="M9.9,4.05 C9.87,4.02 9.82,4 9.78,4 C9.73,4 9.69,4.02 9.66,4.05 L5.82,8.97 C5.82,8.97 4.31,7.52 4.26,7.48 C4.22,7.44 4.17,7.37 4.08,7.37 C4,7.37 3.96,7.43 3.91,7.47 C3.88,7.51 3.34,8.07 3.08,8.35 C3.06,8.37 3.05,8.38 3.04,8.39 C3.02,8.42 3,8.46 3,8.5 C3,8.54 3.02,8.58 3.04,8.61 L3.09,8.66 C3.09,8.66 5.77,11.22 5.82,11.27 C5.86,11.31 5.91,11.37 5.99,11.37 C6.07,11.37 6.13,11.29 6.17,11.25 L10.96,5.11 C10.98,5.08 11,5.04 11,5 C11,4.95 10.98,4.91 10.95,4.88 L9.9,4.05 Z" id="Path" fill="#FFFFFF"></path>
            </g>
        </g>
    </g>
</svg>