<?xml version="1.0" encoding="UTF-8"?>
<svg width="26px" height="25px" viewBox="0 0 26 25" version="1.1" xmlns="http://www.w3.org/2000/svg" xmlns:xlink="http://www.w3.org/1999/xlink">
    <!-- Generator: Sketch 54.1 (76490) - https://sketchapp.com -->
    <title>Facebook</title>
    <desc>Created with Sketch.</desc>
    <g id="Working" stroke="none" stroke-width="1" fill="none" fill-rule="evenodd">
        <path d="M3.0947099,0 L22.9052901,0 C24.6134812,0 26,1.33700354 26,2.97876524 L26,22.0310657 C26,23.6728274 24.6134812,25 22.9052901,25 L3.0947099,25 C1.38651877,25 0,23.6728274 0,22.0310657 L0,2.97876524 C0,1.33700354 1.38651877,0 3.0947099,0 Z M19.709347,8.99339207 L21,8.99339207 L21,6.59471366 C21,6.59471366 20.2970551,6 18.4302177,6 C15.8489117,6 14.5697823,7.79405286 14.5697823,10.1927313 L14.5697823,11.996696 L12,11.996696 L12,15 L14.5697823,15 L14.5697823,24 L17.7848912,24 L17.7848912,15 L20.3546735,15 L21,11.996696 L17.7848912,11.996696 L17.7848912,10.1927313 C17.7848912,9.30066079 18.3380282,8.99339207 19.709347,8.99339207 Z" id="Facebook" fill="#FFFFFF"></path>
    </g>
</svg>