<?xml version="1.0" encoding="UTF-8"?>
<svg width="23px" height="25px" viewBox="0 0 23 25" version="1.1" xmlns="http://www.w3.org/2000/svg" xmlns:xlink="http://www.w3.org/1999/xlink">
    <!-- Generator: Sketch 54.1 (76490) - https://sketchapp.com -->
    <title>LinkedIn</title>
    <desc>Created with Sketch.</desc>
    <g id="Working" stroke="none" stroke-width="1" fill="none" fill-rule="evenodd">
        <path d="M2.73762799,0 L20.262372,0 C21.7734642,0 23,1.33700354 23,2.97876524 L23,22.0310657 C23,23.6728274 21.7734642,25 20.262372,25 L2.73762799,25 C1.22653584,25 0,23.6728274 0,22.0310657 L0,2.97876524 C0,1.33700354 1.22653584,0 2.73762799,0 Z M7.12372014,20.8415258 L7.12372014,9.52615022 L3.8366041,9.52615022 L3.8366041,20.8415258 L7.12372014,20.8415258 Z M3.8366041,6.23279591 C3.8366041,5.3971687 4.4940273,4.75815965 5.47525597,4.75815965 C6.46629693,4.75815965 7.08447099,5.3971687 7.12372014,6.23279591 C7.12372014,7.06842312 6.50554608,7.73692489 5.47525597,7.73692489 C4.4940273,7.73692489 3.8366041,7.06842312 3.8366041,6.23279591 Z M15.8860922,20.8415258 L19.1732082,20.8415258 L19.1732082,14.4416044 C19.1732082,11.1482501 17.4069966,9.52615022 15.2286689,9.52615022 C13.109215,9.52615022 12.0494881,11.049941 12.0494881,11.049941 L12.0494881,9.52615022 L8.76237201,9.52615022 L8.76237201,20.8415258 L12.0494881,20.8415258 L12.0494881,14.8839953 C12.0494881,13.7042863 12.5989761,12.4754227 13.9236348,12.4754227 L13.962884,12.4754227 C15.3366041,12.5049155 15.8860922,13.6944554 15.8860922,14.8839953 L15.8860922,20.8415258 Z" id="LinkedIn" fill="#FFFFFF"></path>
    </g>
</svg>