<?xml version="1.0" encoding="UTF-8"?>
<svg width="28px" height="25px" viewBox="0 0 28 25" version="1.1" xmlns="http://www.w3.org/2000/svg" xmlns:xlink="http://www.w3.org/1999/xlink">
    <!-- Generator: Sketch 54.1 (76490) - https://sketchapp.com -->
    <title>Twitter</title>
    <desc>Created with Sketch.</desc>
    <g id="Working" stroke="none" stroke-width="1" fill="none" fill-rule="evenodd">
        <path d="M28,2.95905959 C26.9710247,3.46574787 25.8628975,3.80016214 24.6954064,3.95216863 C25.8826855,3.17186867 26.7929329,1.93554925 27.2282686,0.466153223 C26.1201413,1.18565059 24.8833922,1.7126064 23.5773852,1.99635184 C22.5286219,0.770166194 21.034629,0 19.3823322,0 C16.2162544,0 13.6438163,2.82732063 13.6438163,6.31333604 C13.6438163,6.80989056 13.6932862,7.28617754 13.7922261,7.75233077 C9.01342756,7.48885286 4.78869258,4.97567896 1.94911661,1.15524929 C1.45441696,2.08755574 1.17738516,3.17186867 1.17738516,4.32711796 C1.17738516,6.51601135 2.18657244,8.4515606 3.73003534,9.58654236 C2.79010601,9.55614106 1.89964664,9.26226186 1.12791519,8.79610863 C1.12791519,8.81637617 1.12791519,8.84677746 1.12791519,8.87717876 C1.12791519,11.9274422 3.10671378,14.4811512 5.72862191,15.0587758 C5.25371025,15.2107823 4.73922261,15.2817187 4.21484099,15.2817187 C3.84876325,15.2817187 3.49257951,15.2411836 3.13639576,15.1702473 C3.86855124,17.6732874 5.99575972,19.507499 8.49893993,19.548034 C6.53992933,21.2505067 4.0664311,22.2537495 1.36537102,22.2537495 C0.900353357,22.2537495 0.445229682,22.2233482 0,22.1625456 C2.54275618,23.9562221 5.56042403,25 8.80565371,25 C19.3724382,25 25.15053,15.3830563 25.15053,7.04296717 C25.15053,6.76935549 25.140636,6.49574382 25.130742,6.23226591 C26.2586572,5.34049453 27.2282686,4.2257803 28,2.95905959 Z" id="Twitter" fill="#FFFFFF"></path>
    </g>
</svg>