<?xml version="1.0" encoding="UTF-8"?>
<svg width="24px" height="20px" viewBox="0 0 24 20" version="1.1" xmlns="http://www.w3.org/2000/svg" xmlns:xlink="http://www.w3.org/1999/xlink">
    <!-- Generator: Sketch 54.1 (76490) - https://sketchapp.com -->
    <title>Youtube</title>
    <desc>Created with Sketch.</desc>
    <g id="Working" stroke="none" stroke-width="1" fill="none" fill-rule="evenodd">
        <path d="M20.8271861,0.754716981 C22.0505595,1.06068332 23.1147949,2.06017338 23.3336096,3.43702193 C23.6121011,4.99745028 23.8905926,7.19020908 24,10.0050994 C23.9502694,12.7485977 23.6717779,15.0025497 23.443017,16.5629781 C23.2242022,18.0010199 22.1599668,18.9393167 20.9365935,19.2554819 C18.9871529,19.6940337 15.6452549,20 11.9751347,20 C8.29506838,20 4.95317033,19.6940337 3.0037298,19.2554819 C1.7803564,18.9393167 0.726067136,17.9398266 0.497306258,16.5629781 C0.218814753,15.0025497 0,12.8199898 0,10.0050994 C0,7.19020908 0.218814753,4.99745028 0.447575632,3.43702193 C0.666390385,1.99898011 1.73062578,1.06068332 2.95399917,0.754716981 C4.79403232,0.316165222 8.24533775,0 11.9154579,0 C15.5955242,0 18.9871529,0.316165222 20.8271861,0.754716981 Z M15.7049316,10.0050994 L8.91172814,5.62978072 L8.91172814,14.3804182 L15.7049316,10.0050994 Z" id="Youtube" fill="#FFFFFF"></path>
    </g>
</svg>