<?xml version="1.0" encoding="UTF-8"?>
<svg width="20px" height="18px" viewBox="0 0 14 12" version="1.1" xmlns="http://www.w3.org/2000/svg" xmlns:xlink="http://www.w3.org/1999/xlink">
    <!-- Generator: Sketch 54.1 (76490) - https://sketchapp.com -->
    <title>Icons / Functional / Download</title>
    <desc>Created with Sketch.</desc>
    <defs>
        <path d="M10.91,3.66 L11.617,4.36 L7.005,8.98 L2.394,4.36 L3.101,3.66 L6.5,7.06 L6.5,0 L7.5,0 L7.5,7.07 L10.91,3.66 Z M12.998,10.46 L12.998,8 L13.998,8 L13.998,10.46 C13.998,11.29 13.325,11.96 12.498,11.96 L1.5,11.96 C0.673,11.96 0,11.29 0,10.46 L0,8 L1,8 L1,10.46 C1,10.74 1.224,10.96 1.5,10.96 L12.498,10.96 C12.774,10.96 12.998,10.74 12.998,10.46 Z" id="path-1"></path>
    </defs>
    <g id="Desktop--Layout" stroke="none" stroke-width="1" fill="none" fill-rule="evenodd">
        <g id="1.0-Homepage-Montreal" transform="translate(-753.000000, -698.000000)">
            <g id="Icons-/-Functional-/-Download" transform="translate(753.000000, 698.000000)">
                <g id="Icons-/-Download">
                    <mask id="mask-2" fill="white">
                        <use xlink:href="#path-1"></use>
                    </mask>
                    <g id="Shape"></g>
                    <rect id="Rectangle" fill="#8B1D41" mask="url(#mask-2)" x="-1" y="-2" width="16" height="16"></rect>
                </g>
            </g>
        </g>
    </g>
</svg>
