<?xml version="1.0" encoding="UTF-8"?>
<svg width="18px" height="18px" viewBox="0 0 18 18" version="1.1" xmlns="http://www.w3.org/2000/svg" xmlns:xlink="http://www.w3.org/1999/xlink">
    <!-- Generator: Sketch 54.1 (76490) - https://sketchapp.com -->
    <title>Edit</title>
    <desc>Created with Sketch.</desc>
    <defs>
        <path d="M16.5265714,6.01286667 L15.6291429,6.897 L12.2837143,3.60113333 L13.1811429,2.717 C13.4318571,2.47126667 13.8394286,2.47 14.0901429,2.717 L16.5265714,5.11606667 C16.7772857,5.36433333 16.7772857,5.76586667 16.5265714,6.01286667 Z M1.28571429,14.8149333 L4.248,17.7333333 L1.28571429,17.7333333 L1.28571429,14.8149333 Z M11.3747143,4.49666667 L14.7201429,7.79253333 L5.35628571,17.0354 L2.01085714,13.7395333 L11.3747143,4.49666667 Z M17.4355714,4.22053333 L15.0004286,1.8202 C14.247,1.08046667 13.023,1.08173333 12.2721429,1.82146667 L0,13.9472667 L0,19 L5.14542857,19 L17.4355714,6.9084 C18.1877143,6.1674 18.1877143,4.96153333 17.4355714,4.22053333 Z" id="path-1"></path>
    </defs>
    <g id="Working" stroke="none" stroke-width="1" fill="none" fill-rule="evenodd">
        <g id="Icons-/-Functional-/-Edit" transform="translate(0.000000, -1.000000)">
            <g id="Clipped">
                <mask id="mask-2" fill="white">
                    <use xlink:href="#path-1"></use>
                </mask>
                <g id="Shape"></g>
                <rect id="Rectangle" fill="#8B1D41" mask="url(#mask-2)" x="-1.28571429" y="0" width="20.5714286" height="20.2666667"></rect>
            </g>
        </g>
    </g>
</svg>