<?xml version="1.0" encoding="UTF-8"?>
<svg width="20px" height="18px" viewBox="0 0 20 18" version="1.1" xmlns="http://www.w3.org/2000/svg" xmlns:xlink="http://www.w3.org/1999/xlink">
    <!-- Generator: Sketch 54.1 (76490) - https://sketchapp.com -->
    <title>Error</title>
    <desc>Created with Sketch.</desc>
    <g id="Working" stroke="none" stroke-width="1" fill="none" fill-rule="evenodd">
        <g id="Icons-/-Functional-/-Error" transform="translate(0.000000, -0.090000)" fill="#8B1D41">
            <path d="M19.521,16.607 L10.144,0.365 C10.003,0.123 9.605,0.123 9.464,0.365 L0.052,16.667 C-0.017,16.788 -0.017,16.938 0.052,17.059 C0.123,17.18 0.253,17.255 0.392,17.255 L19.216,17.255 L19.223,17.255 C19.441,17.255 19.615,17.08 19.615,16.863 C19.615,16.765 19.58,16.676 19.521,16.607 Z M9.213,6.379 C9.213,6.294 9.269,6.238 9.354,6.238 L10.254,6.238 C10.339,6.238 10.394,6.294 10.394,6.379 L10.394,12.05 C10.394,12.134 10.339,12.191 10.254,12.191 L9.354,12.191 C9.269,12.191 9.213,12.134 9.213,12.05 L9.213,6.379 Z M10.283,14.625 C10.366,14.625 10.423,14.57 10.423,14.485 L10.423,13.457 C10.423,13.373 10.368,13.318 10.283,13.318 L9.326,13.318 C9.243,13.318 9.187,13.373 9.187,13.457 L9.187,14.485 C9.187,14.568 9.242,14.625 9.326,14.625 L10.283,14.625 Z" id="Shape"></path>
        </g>
    </g>
</svg>