<?xml version="1.0" encoding="UTF-8"?>
<svg width="17px" height="19px" viewBox="0 0 17 19" version="1.1" xmlns="http://www.w3.org/2000/svg" xmlns:xlink="http://www.w3.org/1999/xlink">
    <!-- Generator: Sketch 54.1 (76490) - https://sketchapp.com -->
    <title>Exclude</title>
    <desc>Created with Sketch.</desc>
    <g id="Working" stroke="none" stroke-width="1" fill="none" fill-rule="evenodd">
        <path d="M4.01347908,3.03181651 L4.01347908,1.37929611 C4.01347908,0.618743487 4.69545716,0 5.53373706,0 L11.4932211,0 C12.331501,0 13.0134791,0.618743487 13.0134791,1.37929611 L13.0134791,3.03181651 L16.9865209,3.03181651 L16.9865209,4.50352294 L15.476295,4.50352294 L14.2972134,18.3284037 C14.2651339,18.708367 13.9565732,19 13.5869121,19 L3.38904603,19 C3.0194205,19 2.71107322,18.7085872 2.67874477,18.3286606 L1.49969874,4.50352294 L0.0134790795,4.50352294 L0.0134790795,3.03181651 L4.01347908,3.03181651 Z M5.83778865,3.03181651 L11.1891695,3.03181651 L11.1891695,1.65515534 L5.83778865,1.65515534 L5.83778865,3.03181651 Z M11.970205,6.68902752 L11.661182,15.3964771 L10.2358138,15.3427523 L10.5448368,6.63508257 L11.970205,6.68902752 Z M7.78685356,6.66205505 L9.21314644,6.66205505 L9.21314644,15.3697615 L7.78685356,15.3697615 L7.78685356,6.66205505 Z M6.76393724,15.3425321 L5.3386046,15.3964771 L5.02954603,6.68880734 L6.45491423,6.63482569 L6.76393724,15.3425321 Z M12.9336925,17.5282936 L14.0445607,4.50352294 L2.93146862,4.50352294 L4.04208787,17.5282936 L12.9336925,17.5282936 Z" id="Exclude" fill="#8B1D41"></path>
    </g>
</svg>