<?xml version="1.0" encoding="UTF-8"?>
<svg width="22px" height="22px" viewBox="0 0 22 22" version="1.1" xmlns="http://www.w3.org/2000/svg" xmlns:xlink="http://www.w3.org/1999/xlink">
    <!-- Generator: Sketch 54.1 (76490) - https://sketchapp.com -->
    <title>Less</title>
    <desc>Created with Sketch.</desc>
    <g id="Working" stroke="none" stroke-width="1" fill="none" fill-rule="evenodd">
        <g id="Less" transform="translate(1.000000, 1.000000)">
            <path d="M13,11 L7,11 C6.45,11 6,10.552 6,10 C6,9.448 6.45,9 7,9 L13,9 C13.55,9 14,9.448 14,10 C14,10.552 13.55,11 13,11 Z" id="Path" fill="#FFFFFF"></path>
            <path d="M10,0 C4.48,0 0,4.477 0,10 C0,15.523 4.48,20 10,20 C15.52,20 20,15.523 20,10 C20,4.477 15.52,0 10,0 Z" id="Path" stroke="#FFFFFF"></path>
        </g>
    </g>
</svg>