<?xml version="1.0" encoding="UTF-8"?>
<svg width="18px" height="18px" viewBox="0 0 18 18" version="1.1" xmlns="http://www.w3.org/2000/svg" xmlns:xlink="http://www.w3.org/1999/xlink">
    <!-- Generator: Sketch 54.1 (76490) - https://sketchapp.com -->
    <title>UI/Search</title>
    <desc>Created with Sketch.</desc>
    <defs>
        <path d="M15.2907356,14.5836288 L20.8535534,20.1464466 C21.0488156,20.3417088 21.0488156,20.6582913 20.8535534,20.8535534 C20.6582913,21.0488156 20.3417088,21.0488156 20.1464466,20.8535534 L14.5836288,15.2907356 C13.3555678,16.3555923 11.7530386,17 9.99999996,17 C6.13400673,17 2.99999996,13.8659933 2.99999996,9.99999996 C2.99999996,6.13400673 6.13400673,2.99999996 9.99999996,2.99999996 C13.8659933,2.99999996 17,6.13400673 17,9.99999996 C17,11.7530386 16.3555923,13.3555678 15.2907356,14.5836288 Z M9.99999997,16 C13.3137085,16 16,13.3137085 16,9.99999997 C16,6.68629148 13.3137085,3.99999997 9.99999997,3.99999997 C6.68629148,3.99999997 3.99999997,6.68629148 3.99999997,9.99999997 C3.99999997,13.3137085 6.68629148,16 9.99999997,16 Z M14,10.5 C14,10.7761424 13.7761424,11 13.5,11 C13.2238576,11 13,10.7761424 13,10.5 L13,9.99999997 C13,8.34314574 11.6568542,6.99999998 9.99999999,6.99999997 L9.49999999,6.99999997 C9.22385761,6.99999998 8.99999999,6.77614235 8.99999999,6.49999997 C8.99999999,6.2238576 9.22385761,5.99999997 9.49999999,5.99999997 L9.99999999,5.99999997 C12.209139,5.99999997 14,7.79086098 14,9.99999997 L14,10.5 Z" id="path-1"></path>
    </defs>
    <g id="Desktop--Layout" stroke="none" stroke-width="1" fill="none" fill-rule="evenodd">
        <g id="Icons/Functional/Search" transform="translate(-3.000000, -3.000000)">
            <mask id="mask-2" fill="white">
                <use xlink:href="#path-1"></use>
            </mask>
            <g id="Combined-Shape" fill-rule="nonzero"></g>
            <g id="Colours/Primary/CIBC-Red" mask="url(#mask-2)" fill="#8B1D41" fill-rule="evenodd">
                <rect id="Colour" x="0" y="0" width="24" height="24" rx="4"></rect>
            </g>
        </g>
    </g>
</svg>