<?xml version="1.0" encoding="UTF-8"?>
<svg width="15px" height="15px" viewBox="0 0 15 15" version="1.1" xmlns="http://www.w3.org/2000/svg" xmlns:xlink="http://www.w3.org/1999/xlink">
    <!-- Generator: Sketch 54.1 (76490) - https://sketchapp.com -->
    <title>Icons / Search Copy</title>
    <desc>Created with Sketch.</desc>
    <defs>
        <path d="M11.951,12.659 L8.068,8.776 C8.328,8.563 8.564,8.327 8.776,8.068 L12.659,11.951 L11.951,12.659 Z M6.479,8.601 C6.01,8.798 5.494,8.908 4.954,8.908 C2.774,8.908 1,7.134 1,4.954 C1,2.774 2.774,1 4.954,1 C7.135,1 8.909,2.774 8.909,4.954 C8.909,5.494 8.798,6.009 8.601,6.478 C8.467,6.799 8.28,7.089 8.069,7.361 C7.864,7.626 7.627,7.863 7.361,8.069 C7.09,8.279 6.8,8.466 6.479,8.601 Z M13.367,11.243 L9.337,7.214 C9.69,6.534 9.909,5.772 9.909,4.954 C9.909,2.222 7.686,0 4.954,0 C2.222,0 0,2.222 0,4.954 C0,7.686 2.222,9.908 4.954,9.908 C5.773,9.908 6.534,9.689 7.215,9.337 L11.244,13.366 L11.951,14.073 L12.658,13.366 L13.367,12.658 L14.074,11.951 L13.367,11.243 Z" id="path-1"></path>
    </defs>
    <g id="Working" stroke="none" stroke-width="1" fill="none" fill-rule="evenodd">
        <g id="Icons-/-Functional-/-Search">
            <g id="Clipped" transform="translate(7.500000, 7.500000) scale(-1, 1) translate(-7.500000, -7.500000) ">
                <mask id="mask-2" fill="white">
                    <use xlink:href="#path-1"></use>
                </mask>
                <g id="Shape"></g>
                <rect id="Rectangle" fill="#BBBCBC" mask="url(#mask-2)" x="-1" y="-1" width="16" height="16"></rect>
            </g>
        </g>
    </g>
</svg>